<svg viewBox="0 0 24 25" xmlns="http://www.w3.org/2000/svg" style="fill: #2C416D;">
<path d="M22.4482 8.483L21.2482 17.063C21.2183 17.5163 21.0904 17.9578 20.8734 18.3569C20.6564 18.7561 20.3554 19.1034 19.9912 19.375C19.9453 19.4068 19.8918 19.4257 19.8361 19.4296C19.7805 19.4336 19.7248 19.4225 19.6749 19.3976C19.625 19.3726 19.5827 19.3347 19.5525 19.2878C19.5223 19.2409 19.5053 19.1868 19.5032 19.131V10.54C19.555 9.97984 19.4827 9.41516 19.2915 8.88611C19.1003 8.35705 18.7949 7.87663 18.397 7.47899C17.9991 7.08136 17.5184 6.77629 16.9892 6.58548C16.46 6.39467 15.8953 6.3228 15.3352 6.375H5.92319C5.62319 6.375 5.61619 6.105 5.63719 5.985C5.72161 5.17153 6.12067 4.42328 6.74919 3.9C7.10405 3.66214 7.50294 3.49775 7.92235 3.41651C8.34176 3.33528 8.77318 3.33884 9.19119 3.427L19.7522 4.907C20.1797 4.93809 20.5966 5.05444 20.9784 5.2492C21.3602 5.44396 21.6991 5.71318 21.9752 6.041C22.2135 6.39564 22.3782 6.79453 22.4594 7.21401C22.5407 7.63349 22.5369 8.06502 22.4482 8.483ZM18.0002 10.54V19.208C18.0517 19.5701 18.0183 19.9392 17.9027 20.2861C17.787 20.633 17.5922 20.9483 17.3337 21.207C17.0752 21.4657 16.7601 21.6607 16.4132 21.7767C16.0664 21.8926 15.6973 21.9263 15.3352 21.875H4.66719C4.30489 21.9268 3.93551 21.8936 3.58829 21.7779C3.24108 21.6622 2.92558 21.4672 2.66679 21.2084C2.408 20.9496 2.21303 20.6341 2.09733 20.2869C1.98162 19.9397 1.94837 19.5703 2.00019 19.208V10.54C1.94871 10.1779 1.98223 9.8087 2.09808 9.46174C2.21394 9.11479 2.40896 8.79956 2.66771 8.54101C2.92645 8.28246 3.24182 8.08768 3.58886 7.97208C3.9359 7.85648 4.30508 7.82325 4.66719 7.875H15.3352C15.6971 7.8238 16.066 7.85745 16.4126 7.97328C16.7593 8.0891 17.0743 8.28394 17.3328 8.5424C17.5912 8.80086 17.7861 9.11586 17.9019 9.46254C18.0177 9.80922 18.0514 10.1781 18.0002 10.54ZM13.2502 14.875C13.2502 14.6761 13.1712 14.4853 13.0305 14.3447C12.8899 14.204 12.6991 14.125 12.5002 14.125H10.7502V12.375C10.7502 12.1761 10.6712 11.9853 10.5305 11.8447C10.3899 11.704 10.1991 11.625 10.0002 11.625C9.80128 11.625 9.61051 11.704 9.46986 11.8447C9.32921 11.9853 9.25019 12.1761 9.25019 12.375V14.125H7.50019C7.30128 14.125 7.11051 14.204 6.96986 14.3447C6.82921 14.4853 6.75019 14.6761 6.75019 14.875C6.75019 15.0739 6.82921 15.2647 6.96986 15.4053C7.11051 15.546 7.30128 15.625 7.50019 15.625H9.25019V17.375C9.25019 17.5739 9.32921 17.7647 9.46986 17.9053C9.61051 18.046 9.80128 18.125 10.0002 18.125C10.1991 18.125 10.3899 18.046 10.5305 17.9053C10.6712 17.7647 10.7502 17.5739 10.7502 17.375V15.625H12.5002C12.6991 15.625 12.8899 15.546 13.0305 15.4053C13.1712 15.2647 13.2502 15.0739 13.2502 14.875Z"></path>
</svg>