<svg viewBox="0 0 24 24" xmlns="http://www.w3.org/2000/svg" style="fill: #CD3535;">
<path fill-rule="evenodd" clip-rule="evenodd" d="M5.94049 8.86035L6.68084 18.5682C6.79108 20.0137 7.99608 21.1303 9.44572 21.1303H14.5447C15.936 21.1303 17.0956 20.0649 17.2131 18.6785L18.0453 8.86035H5.94049ZM5.55139 7.36035C4.88795 7.36035 4.3648 7.92492 4.41525 8.58644L5.18518 18.6823C5.35505 20.9097 7.21189 22.6303 9.44572 22.6303H14.5447C16.7153 22.6303 18.5244 20.9681 18.7077 18.8052L19.5731 8.59603C19.6294 7.93115 19.105 7.36035 18.4377 7.36035H5.55139Z"></path>
<path fill-rule="evenodd" clip-rule="evenodd" d="M8.48202 3.62086C8.48202 2.83054 9.12271 2.18985 9.91302 2.18985H14.0769C14.8672 2.18985 15.5079 2.83054 15.5079 3.62086C15.5079 3.99111 15.8063 4.29824 16.1659 4.35583H20C20.4142 4.35583 20.75 4.69162 20.75 5.10583C20.75 5.52005 20.4142 5.85584 20 5.85584H4C3.58579 5.85584 3.25 5.52005 3.25 5.10583C3.25 4.69162 3.58579 4.35583 4 4.35583H7.82408C8.18367 4.29824 8.48202 3.99111 8.48202 3.62086Z"></path>
</svg>