<svg viewBox="0 0 25 24" xmlns="http://www.w3.org/2000/svg" style="fill: #1f1f1f;">
<path fill-rule="evenodd" clip-rule="evenodd" d="M21.3098 7.2771C21.5349 8.29853 21.3683 9.3969 20.5138 10.2514L20.5115 10.2537L18.9199 11.8316L12.5156 5.21433L14.0871 3.64285L14.0935 3.63675C14.9656 2.80483 16.0659 2.66917 17.0781 2.92244C18.0682 3.17021 19.0141 3.7915 19.7543 4.5528C20.4945 5.31416 21.0896 6.27791 21.3098 7.2771ZM15.1347 4.71657C15.5519 4.32229 16.0834 4.21978 16.714 4.37758C17.3695 4.54161 18.0812 4.98381 18.6788 5.59842C19.2763 6.21298 19.699 6.9376 19.845 7.59997C19.986 8.23957 19.8676 8.77562 19.4541 9.18972C19.4538 9.19006 19.4535 9.19039 19.4531 9.19073L18.942 9.69752L14.6197 5.23154L15.1347 4.71657ZM11.3376 6.51993L17.754 13.1099L11.419 19.5851C11.1735 19.8291 10.8576 19.9894 10.5162 20.0438L4.80643 21.1718L4.78962 21.1744C4.53522 21.2127 4.27536 21.1908 4.03097 21.1104C3.78657 21.03 3.56447 20.8934 3.38255 20.7114C3.20063 20.5295 3.06396 20.3074 2.98355 20.063C2.90315 19.8186 2.88125 19.5588 2.91963 19.3044L2.92761 19.2514L4.54636 13.8713C4.60654 13.547 4.76278 13.2476 4.99546 13.0125L11.3376 6.51993ZM11.3359 8.66833L6.06191 14.0674C6.03946 14.09 6.02483 14.1191 6.02024 14.1506L6.01224 14.2054L4.40155 19.5588C4.40234 19.5708 4.40463 19.5827 4.40842 19.5942C4.41543 19.6156 4.42735 19.6349 4.44321 19.6508C4.45907 19.6666 4.47844 19.6786 4.49975 19.6856C4.51797 19.6916 4.53718 19.6938 4.55624 19.6923L10.2595 18.5655L10.2781 18.5628C10.3087 18.5584 10.337 18.5445 10.3593 18.5232L15.658 13.1073L11.3359 8.66833Z"></path>
</svg>