<svg viewBox="0 0 24 24" xmlns="http://www.w3.org/2000/svg" style="fill: #2c416d;">
<path d="M12.0002 3.75385C7.38801 3.75385 3.91201 6.62431 3.91201 9.89231V11.6602C4.01953 11.6507 4.12751 11.646 4.23554 11.6462H6.82377C7.3386 11.6462 7.83235 11.8309 8.19639 12.1598C8.56043 12.4888 8.76495 12.9349 8.76495 13.4V19.2462C8.76495 19.7113 8.56043 20.1574 8.19639 20.4863C7.83235 20.8152 7.3386 21 6.82377 21H4.23554C3.37748 21 2.55458 20.692 1.94784 20.1439C1.3411 19.5957 1.00024 18.8522 1.00024 18.0769V14.5692C1.00024 13.7508 1.37166 13.0118 1.97083 12.4822V9.89231C1.97083 5.41182 6.60636 2 12.0002 2C17.3941 2 22.0297 5.41182 22.0297 9.89231V12.4822C22.3375 12.7539 22.582 13.0785 22.7487 13.437C22.9154 13.7954 23.0009 14.1804 23.0002 14.5692V18.0769C23.0002 18.4608 22.9166 18.8409 22.754 19.1955C22.5914 19.5502 22.3531 19.8724 22.0526 20.1439C21.7522 20.4153 21.3956 20.6306 21.003 20.7775C20.6105 20.9244 20.1898 21 19.7649 21H17.1767C16.6619 21 16.1681 20.8152 15.8041 20.4863C15.4401 20.1574 15.2355 19.7113 15.2355 19.2462V13.4C15.2355 12.9349 15.4401 12.4888 15.8041 12.1598C16.1681 11.8309 16.6619 11.6462 17.1767 11.6462H19.7649C19.8737 11.6462 19.9824 11.6508 20.0885 11.6602V9.89231C20.0885 6.62431 16.6125 3.75385 12.0002 3.75385Z"></path>
</svg>