<svg viewBox="0 0 24 24" xmlns="http://www.w3.org/2000/svg" style="fill: #2C416D;">
<g clip-path="url(#clip0_3786_33556)">
<path d="M3.00024 5.07379V18.9261C3.00024 20.2563 4.09582 21.3519 5.42641 21.3519H15.8349C17.1655 21.3519 18.2611 20.2563 18.2611 18.9257V15.5607L17.7131 16.1087C17.1652 16.6566 16.3825 17.0479 15.5999 17.2826L13.9564 17.5955C13.2521 17.7522 12.4695 17.5172 12.0782 16.9696C11.6869 16.5 11.5302 15.9524 11.6869 15.326L12.0782 13.6042C12.2349 12.8215 12.6262 12.1173 13.2521 11.491L17.1652 7.57791C17.4781 7.26495 17.9478 6.95198 18.3391 6.7953V5.07341C18.3391 3.74282 17.2435 2.64725 15.9129 2.64725H5.42641C4.09582 2.64763 3.00024 3.74321 3.00024 5.07379ZM6.83495 5.38676H14.3481C14.8177 5.38676 15.1307 5.69973 15.1307 6.16937C15.1307 6.63901 14.8177 6.95198 14.3481 6.95198H6.83495C6.36531 6.95198 6.05234 6.63901 6.05234 6.16937C6.05234 5.77807 6.44365 5.38676 6.83495 5.38676ZM6.83495 8.59553H11.2176C11.6873 8.59553 12.0002 8.9085 12.0002 9.37814C12.0002 9.84779 11.6873 10.1608 11.2176 10.1608H6.83495C6.36531 10.1608 6.05234 9.84779 6.05234 9.37814C6.05234 8.9085 6.44365 8.59553 6.83495 8.59553Z"></path>
<path d="M20.5306 8.75204C19.9047 8.12611 18.8087 8.12611 18.1828 8.75204L14.2698 12.6651C13.8785 13.0564 13.6438 13.4477 13.5655 13.9957L13.1742 15.6392C13.0959 15.8739 13.3309 16.1089 13.5655 16.0305L15.2874 15.6392C15.757 15.5609 16.2267 15.2479 16.618 14.935L20.531 11.0219C21.157 10.396 21.1566 9.37798 20.5306 8.75204Z"></path>
</g>
<defs>
<clipPath id="clip0_3786_33556">
<rect width="18" height="18.7043" fill="white" transform="translate(3.00024 2.64786)"></rect>
</clipPath>
</defs>
</svg>