<svg viewBox="0 0 25 24" xmlns="http://www.w3.org/2000/svg" style="fill: #1f1f1f;">
<path fill-rule="evenodd" clip-rule="evenodd" d="M19.2165 13.5098V17.8964C19.2165 19.9075 17.571 21.553 15.5599 21.553H6.30784C4.29682 21.553 2.65125 19.9077 2.65125 17.8967V5.58352C2.65125 3.57226 4.29665 1.92717 6.3074 1.92659L15.6292 1.92659C17.6403 1.92659 19.2858 3.57201 19.2858 5.58318V6.99395C19.8429 7.10395 20.3721 7.37012 20.7945 7.79248C21.9362 8.93419 21.9375 10.7888 20.7948 11.9315L19.2165 13.5098ZM16.2559 14.3491C16.243 14.3594 16.2301 14.3696 16.217 14.3799C15.8772 14.6476 15.4752 14.908 15.0732 14.9751L13.5426 15.3229C13.4884 15.341 13.4341 15.3403 13.3848 15.3256C13.3478 15.3147 13.3136 15.2959 13.2841 15.2714C13.2136 15.2127 13.1706 15.1209 13.1833 15.0245C13.1846 15.0149 13.1864 15.0053 13.1888 14.9957C13.1905 14.9888 13.1925 14.982 13.1948 14.9751L13.5426 13.5141C13.5448 13.4987 13.5472 13.4833 13.5496 13.4681C13.5516 13.4564 13.5536 13.4449 13.5556 13.4333C13.6361 12.988 13.8403 12.6597 14.1686 12.3314L17.6469 8.85314C17.6702 8.82982 17.6942 8.80747 17.719 8.7861C17.8962 8.63295 18.108 8.53003 18.3317 8.47733C18.3826 8.46534 18.4341 8.45595 18.486 8.44916C18.933 8.39062 19.406 8.52528 19.7338 8.85314C20.2902 9.40953 20.2905 10.3144 19.7342 10.8708L16.2559 14.3491ZM11.8727 14.6966C11.7334 15.2534 11.8727 15.7401 12.2205 16.1576C12.5628 16.6366 13.242 16.8465 13.8601 16.7203C13.8701 16.7183 13.8801 16.7162 13.89 16.714L15.351 16.4358C15.3678 16.4307 15.3847 16.4256 15.4016 16.4203C15.6784 16.3347 15.9544 16.2269 16.2165 16.0971C16.5623 15.9258 16.8838 15.7161 17.1508 15.468C17.1776 15.4431 17.2038 15.4179 17.2294 15.3923L17.7165 14.9052V17.8964C17.7165 19.0791 16.7426 20.053 15.5599 20.053H6.30784C5.12509 20.053 4.15125 19.0791 4.15125 17.8967V5.58352C4.15125 4.40077 5.12509 3.42693 6.30784 3.42659H15.6292C16.8119 3.42659 17.7858 4.40044 17.7858 5.58318V7.11375C17.4379 7.25302 17.0205 7.53121 16.7423 7.8094L13.264 11.2877C13.2407 11.311 13.2178 11.3344 13.1952 11.358C12.6789 11.897 12.354 12.4996 12.2205 13.1661L11.8727 14.6966ZM14.2382 7.25302C14.6557 7.25302 14.9339 6.97482 14.9339 6.55737C14.9339 6.13991 14.6557 5.86171 14.2382 5.86171H7.55987C7.21205 5.86171 6.86422 6.20954 6.86422 6.55737C6.86422 6.89759 7.049 7.14531 7.34334 7.22533C7.41016 7.24349 7.48264 7.25302 7.55987 7.25302H14.2382ZM7.35931 8.74455C7.08981 8.82754 6.86422 9.07341 6.86422 9.40961C6.86422 9.82707 7.14241 10.1053 7.55987 10.1053H11.4556C11.8731 10.1053 12.1512 9.82707 12.1512 9.40961C12.1512 9.08417 11.9822 8.84336 11.7099 8.75302C11.6329 8.72747 11.5476 8.71395 11.4556 8.71395H7.55987C7.49217 8.71395 7.42446 8.7245 7.35931 8.74455Z"></path>
</svg>