<svg xmlns="http://www.w3.org/2000/svg" viewBox="0 0 36 37" fill="none">
  <rect x="25.4496" y="0.0981445" width="13.5455" height="15.8031" rx="6.77274" transform="rotate(42.7275 25.4496 0.0981445)" fill="url(#paint0_linear_8669_83299)"></rect>
  <g filter="url(#filter0_b_8669_83299)">
    <mask id="path-2-inside-1_8669_83299" fill="white">
      <path d="M19.3224 6.73165C20.1684 5.81575 21.5967 5.75907 22.5126 6.60506L29.1462 12.7322C30.0621 13.5782 30.1188 15.0065 29.2728 15.9224L16.3352 29.9293C15.7799 30.5304 15.0717 30.9693 14.2863 31.1991L10.4332 32.3265L4.46301 26.8121L5.2813 22.8815C5.44814 22.0804 5.82959 21.3396 6.38484 20.7385L19.3224 6.73165Z"></path>
    </mask>
    <path d="M19.3224 6.73165C20.1684 5.81575 21.5967 5.75907 22.5126 6.60506L29.1462 12.7322C30.0621 13.5782 30.1188 15.0065 29.2728 15.9224L16.3352 29.9293C15.7799 30.5304 15.0717 30.9693 14.2863 31.1991L10.4332 32.3265L4.46301 26.8121L5.2813 22.8815C5.44814 22.0804 5.82959 21.3396 6.38484 20.7385L19.3224 6.73165Z" fill="#FFB7B5" fill-opacity="0.6"></path>
    <path d="M22.5126 6.60506L22.0974 7.05455V7.05455L22.5126 6.60506ZM19.3224 6.73165L18.8729 6.31648V6.31648L19.3224 6.73165ZM29.1462 12.7322L28.731 13.1817H28.731L29.1462 12.7322ZM29.2728 15.9224L29.7223 16.3376L29.2728 15.9224ZM16.3352 29.9293L15.8857 29.5141L16.3352 29.9293ZM14.2863 31.1991L14.4582 31.7864L14.2863 31.1991ZM10.4332 32.3265L10.018 32.776L10.2725 33.0111L10.605 32.9138L10.4332 32.3265ZM4.46301 26.8121L3.86396 26.6874L3.79335 27.0265L4.04783 27.2616L4.46301 26.8121ZM5.2813 22.8815L4.68226 22.7568L4.68225 22.7568L5.2813 22.8815ZM6.38484 20.7385L5.93535 20.3233H5.93535L6.38484 20.7385ZM22.9278 6.15557C21.7636 5.08028 19.9482 5.15232 18.8729 6.31648L19.7719 7.14683C20.3886 6.47918 21.4298 6.43786 22.0974 7.05455L22.9278 6.15557ZM29.5614 12.2827L22.9278 6.15556L22.0974 7.05455L28.731 13.1817L29.5614 12.2827ZM29.7223 16.3376C30.7976 15.1734 30.7255 13.358 29.5614 12.2827L28.731 13.1817C29.3987 13.7984 29.44 14.8396 28.8233 15.5072L29.7223 16.3376ZM16.7847 30.3444L29.7223 16.3376L28.8233 15.5072L15.8857 29.5141L16.7847 30.3444ZM14.4582 31.7864C15.35 31.5255 16.1542 31.027 16.7847 30.3444L15.8857 29.5141C15.4057 30.0338 14.7935 30.4132 14.1145 30.6119L14.4582 31.7864ZM10.605 32.9138L14.4582 31.7864L14.1145 30.6119L10.2613 31.7392L10.605 32.9138ZM10.8484 31.877L4.87819 26.3626L4.04783 27.2616L10.018 32.776L10.8484 31.877ZM5.93535 20.3233C5.30484 21.0059 4.87171 21.8471 4.68226 22.7568L5.88035 23.0063C6.02458 22.3137 6.35433 21.6733 6.83433 21.1537L5.93535 20.3233ZM18.8729 6.31648L5.93535 20.3233L6.83433 21.1537L19.7719 7.14683L18.8729 6.31648ZM5.06206 26.9368L5.88035 23.0063L4.68225 22.7568L3.86396 26.6874L5.06206 26.9368Z" fill="url(#paint1_linear_8669_83299)" mask="url(#path-2-inside-1_8669_83299)"></path>
  </g>
  <g filter="url(#filter1_b_8669_83299)">
    <rect width="9.03031" height="2.25758" rx="1.12879" transform="matrix(-0.734589 -0.678512 -0.678513 0.734589 27.6144 14.3906)" fill="url(#paint2_linear_8669_83299)" fill-opacity="0.9"></rect>
    <rect x="-0.345868" y="0.0137252" width="8.5408" height="1.76806" rx="0.884031" transform="matrix(-0.734589 -0.678512 -0.678513 0.734589 27.0238 14.1596)" stroke="url(#paint3_linear_8669_83299)" stroke-width="0.489516"></rect>
  </g>
  <path d="M10.4332 32.3266L4.46301 26.8121L3.23629 32.7027C3.06256 33.537 3.84049 34.2555 4.65835 34.0162L10.4332 32.3266Z" fill="url(#paint4_linear_8669_83299)"></path>
  <defs>
    <filter id="filter0_b_8669_83299" x="-8.59958" y="-7.05673" width="51.5341" height="52.4459" filterUnits="userSpaceOnUse" color-interpolation-filters="sRGB">
      <feFlood flood-opacity="0" result="BackgroundImageFix"></feFlood>
      <feGaussianBlur in="BackgroundImageFix" stdDeviation="6.53129"></feGaussianBlur>
      <feComposite in2="SourceAlpha" operator="in" result="effect1_backgroundBlur_8669_83299"></feComposite>
      <feBlend mode="normal" in="SourceGraphic" in2="effect1_backgroundBlur_8669_83299" result="shape"></feBlend>
    </filter>
    <filter id="filter1_b_8669_83299" x="-6.2099" y="-17.3954" width="59.4831" height="59.1034" filterUnits="userSpaceOnUse" color-interpolation-filters="sRGB">
      <feFlood flood-opacity="0" result="BackgroundImageFix"></feFlood>
      <feGaussianBlur in="BackgroundImageFix" stdDeviation="13.0626"></feGaussianBlur>
      <feComposite in2="SourceAlpha" operator="in" result="effect1_backgroundBlur_8669_83299"></feComposite>
      <feBlend mode="normal" in="SourceGraphic" in2="effect1_backgroundBlur_8669_83299" result="shape"></feBlend>
    </filter>
    <linearGradient id="paint0_linear_8669_83299" x1="29.3569" y1="3.55506" x2="40.0503" y2="6.70707" gradientUnits="userSpaceOnUse">
      <stop stop-color="#FF6161"></stop>
      <stop offset="1" stop-color="#F52828"></stop>
    </linearGradient>
    <linearGradient id="paint1_linear_8669_83299" x1="2.06794" y1="6.46278" x2="20.4374" y2="31.2247" gradientUnits="userSpaceOnUse">
      <stop stop-color="white"></stop>
      <stop offset="0.765625" stop-color="white" stop-opacity="0"></stop>
    </linearGradient>
    <linearGradient id="paint2_linear_8669_83299" x1="9.20275" y1="1.25881" x2="-3.83143" y2="0.926853" gradientUnits="userSpaceOnUse">
      <stop stop-color="#FCFDFE"></stop>
      <stop offset="1" stop-color="#FCFDFE" stop-opacity="0"></stop>
    </linearGradient>
    <linearGradient id="paint3_linear_8669_83299" x1="8.93134" y1="1.55265" x2="4.51516" y2="2.25758" gradientUnits="userSpaceOnUse">
      <stop stop-color="white"></stop>
      <stop offset="1" stop-color="white" stop-opacity="0"></stop>
    </linearGradient>
    <linearGradient id="paint4_linear_8669_83299" x1="5.33805" y1="29.32" x2="7.60105" y2="35.1597" gradientUnits="userSpaceOnUse">
      <stop stop-color="#FF6161"></stop>
      <stop offset="1" stop-color="#F52828"></stop>
    </linearGradient>
  </defs>
</svg>