<svg viewBox="0 0 24 24" xmlns="http://www.w3.org/2000/svg" style="fill: #1f1f1f;">
<path fill-rule="evenodd" clip-rule="evenodd" d="M13.0002 4L13.0002 20C13.0002 20.5523 12.5525 21 12.0002 21C11.448 21 11.0002 20.5523 11.0002 20L11.0002 4C11.0002 3.44772 11.4479 3 12.0002 3C12.5525 3 13.0002 3.44771 13.0002 4Z"></path>
<path fill-rule="evenodd" clip-rule="evenodd" d="M4.00024 11L20.0002 11C20.5525 11 21.0002 11.4477 21.0002 12C21.0002 12.5523 20.5525 13 20.0002 13L4.00024 13C3.44796 13 3.00024 12.5523 3.00024 12C3.00024 11.4477 3.44796 11 4.00024 11Z"></path>
</svg>