<svg viewBox="0 0 25 24" xmlns="http://www.w3.org/2000/svg" style="fill: #1f1f1f;">
<path fill-rule="evenodd" clip-rule="evenodd" d="M4.65125 19.1091C4.65116 19.3454 4.71579 19.5777 4.83866 19.7825C4.96152 19.9874 5.13832 20.1577 5.35135 20.2763C5.56438 20.395 5.80617 20.4579 6.05251 20.4588C6.29885 20.4596 6.54109 20.3983 6.755 20.2811L11.6862 17.5773C11.8279 17.4997 11.9881 17.4589 12.1512 17.4589C12.3143 17.4589 12.4746 17.4997 12.6162 17.5773L17.5475 20.2811C17.7614 20.3983 18.0036 20.4596 18.25 20.4588C18.4963 20.4579 18.7381 20.395 18.9511 20.2763C19.1642 20.1577 19.341 19.9874 19.4638 19.7825C19.5867 19.5777 19.6513 19.3454 19.6512 19.1091V5.49287C19.6512 4.77721 19.3549 4.09086 18.8275 3.58481C18.3 3.07875 17.5847 2.79446 16.8387 2.79446H7.46375C6.71782 2.79446 6.00245 3.07875 5.47501 3.58481C4.94756 4.09086 4.65125 4.77721 4.65125 5.49287V19.1091ZM18.1512 18.9015V5.49287C18.1512 5.19555 18.0287 4.89718 17.789 4.66719C17.5472 4.43517 17.2064 4.29446 16.8387 4.29446H7.46375C7.09607 4.29446 6.75531 4.43517 6.51349 4.66719C6.27377 4.89718 6.15125 5.19555 6.15125 5.49288V18.9015L10.9651 16.262C11.33 16.062 11.7388 15.9589 12.1512 15.9589C12.5637 15.9589 12.9723 16.0619 13.3371 16.2619L18.1512 18.9015ZM6.15125 19.1096C6.15125 19.1095 6.15125 19.1098 6.15125 19.1096V19.1096Z"></path>
</svg>