<svg viewBox="0 0 25 24" xmlns="http://www.w3.org/2000/svg" style="fill: var(--icon-primary);">
<path fill-rule="evenodd" clip-rule="evenodd" d="M19.6532 4.73424C20.0208 4.48787 20.5184 4.58609 20.7648 4.95363C23.6091 9.19681 23.6177 14.7934 20.7647 19.0465C20.5182 19.414 20.0205 19.5121 19.653 19.2656C19.2855 19.0191 19.1875 18.5214 19.434 18.1539C21.9241 14.4419 21.9171 9.55034 19.4338 5.84583C19.1874 5.47829 19.2857 4.98062 19.6532 4.73424Z"></path>
<path fill-rule="evenodd" clip-rule="evenodd" d="M17.0984 7.3077C17.4858 7.09391 17.9732 7.23465 18.187 7.62205C19.689 10.3438 19.6896 13.6646 18.1864 16.379C17.972 16.7661 17.4844 16.9061 17.0973 16.6917C16.7103 16.4773 16.5703 15.9898 16.7846 15.6027C18.0199 13.3721 18.0206 10.637 16.784 8.39626C16.5703 8.00885 16.711 7.52149 17.0984 7.3077Z"></path>
<path fill-rule="evenodd" clip-rule="evenodd" d="M8.77847 4.79254C9.79559 4.13167 11.2118 3.51569 12.7254 4.41264C12.7444 4.42388 12.7629 4.43589 12.7808 4.44864C13.5674 5.00712 14.0973 5.79043 14.4224 6.995C14.7371 8.16096 14.8701 9.75702 14.8701 11.9998C14.8701 14.2449 14.7305 15.845 14.4125 17.0129C14.0848 18.2161 13.5563 19 12.781 19.5508C12.7631 19.5636 12.7446 19.5756 12.7257 19.5868C11.2121 20.4844 9.79574 19.8687 8.77847 19.2078C8.39389 18.9579 8.01505 18.6675 7.68383 18.4137C7.57896 18.3333 7.47886 18.2566 7.38487 18.186C6.95287 17.8614 6.6597 17.674 6.44639 17.6037C5.98977 17.4535 5.63323 17.4108 5.2306 17.3626C5.08283 17.345 4.92884 17.3265 4.76143 17.3018C4.13712 17.2094 3.48504 17.0324 2.78349 16.4367C2.05302 15.8166 1.71419 15.0051 1.55413 14.2228C1.39834 13.4612 1.4001 12.6617 1.40153 12.0122L1.40156 12.0015V11.998L1.40153 11.9874C1.4001 11.3379 1.39834 10.5383 1.55413 9.77679C1.71419 8.99442 2.05303 8.18295 2.78354 7.56279C3.48515 6.96769 4.13745 6.79085 4.76143 6.69855C4.92805 6.6739 5.0814 6.6555 5.2286 6.63785C5.63191 6.58947 5.98903 6.54664 6.44624 6.3959C6.65934 6.32583 6.95302 6.13845 7.38498 5.81405C7.4792 5.7433 7.57955 5.66641 7.68471 5.58584C8.0157 5.33223 8.39426 5.04218 8.77847 4.79254ZM6.94734 7.91789C6.32297 8.12366 5.75292 8.19116 5.32195 8.24219C5.20186 8.25641 5.09257 8.26935 4.99591 8.28365C4.5532 8.34914 4.21911 8.44635 3.82055 8.78433C3.45175 9.09742 3.23948 9.53336 3.12398 10.0979C3.00535 10.6778 3.00242 11.3186 3.00391 11.998V12.0015C3.00242 12.681 3.00535 13.3218 3.12398 13.9016C3.23948 14.4662 3.45175 14.9022 3.82055 15.2153C4.21929 15.5538 4.55344 15.6512 4.99591 15.7167C5.09276 15.731 5.20237 15.7439 5.32287 15.7582C5.75368 15.8091 6.32366 15.8765 6.94749 16.0817C7.44602 16.246 7.93625 16.5961 8.34731 16.9049C8.46698 16.9948 8.58346 17.084 8.6983 17.172C9.01745 17.4165 9.324 17.6513 9.65149 17.8641C10.5256 18.4321 11.2008 18.6122 11.8803 18.2249C12.2835 17.93 12.6213 17.492 12.8664 16.5919C13.1267 15.6361 13.2677 14.2102 13.2677 11.9998C13.2677 9.78704 13.1327 8.36581 12.8754 7.41254C12.6338 6.51742 12.2972 6.07892 11.8806 5.77487C11.2011 5.38778 10.5258 5.56813 9.65149 6.13618C9.32426 6.3488 9.01801 6.58336 8.69918 6.82755C8.58402 6.91575 8.46722 7.00521 8.34719 7.09534C7.9361 7.40406 7.44607 7.75391 6.94734 7.91789Z"></path>
</svg>