<svg viewBox="0 0 24 24" xmlns="http://www.w3.org/2000/svg" style="fill: var(--icon-brand-primary);">
<path fill-rule="evenodd" clip-rule="evenodd" d="M19.5022 4.73426C19.8698 4.48788 20.3674 4.58611 20.6138 4.95365C23.4581 9.19683 23.4667 14.7935 20.6137 19.0466C20.3672 19.414 19.8694 19.5121 19.502 19.2656C19.1345 19.0191 19.0365 18.5214 19.283 18.1539C21.7731 14.4419 21.7661 9.55035 19.2828 5.84585C19.0364 5.47831 19.1347 4.98063 19.5022 4.73426Z"></path>
<path fill-rule="evenodd" clip-rule="evenodd" d="M16.9474 7.30772C17.3348 7.09392 17.8222 7.23466 18.0359 7.62207C19.538 10.3438 19.5386 13.6646 18.0354 16.379C17.821 16.7661 17.3334 16.9061 16.9463 16.6917C16.5593 16.4773 16.4192 15.9898 16.6336 15.6027C17.8689 13.3721 17.8696 10.637 16.633 8.39627C16.4193 8.00887 16.56 7.52151 16.9474 7.30772Z"></path>
<path fill-rule="evenodd" clip-rule="evenodd" d="M8.62747 4.79256C9.64459 4.13169 11.0608 3.51571 12.5744 4.41266C12.5934 4.42389 12.6119 4.4359 12.6298 4.44866C13.4164 5.00714 13.9463 5.79045 14.2714 6.99501C14.5861 8.16098 14.7191 9.75704 14.7191 11.9998C14.7191 14.245 14.5795 15.845 14.2614 17.0129C13.9338 18.2161 13.4053 19.0001 12.63 19.5508C12.6121 19.5636 12.5936 19.5756 12.5747 19.5868C11.0611 20.4844 9.64474 19.8687 8.62747 19.2078C8.24288 18.9579 7.86404 18.6675 7.53283 18.4137C7.42796 18.3333 7.32786 18.2566 7.23386 18.186C6.80187 17.8615 6.50869 17.674 6.29539 17.6037C5.83877 17.4535 5.48222 17.4109 5.0796 17.3627C4.93182 17.345 4.77784 17.3265 4.61042 17.3018C3.98612 17.2094 3.33404 17.0324 2.63249 16.4368C1.90202 15.8166 1.56318 15.0052 1.40313 14.2228C1.24734 13.4613 1.2491 12.6617 1.25053 12.0122L1.25056 12.0016V11.9981L1.25053 11.9874C1.2491 11.3379 1.24734 10.5384 1.40313 9.7768C1.56319 8.99444 1.90203 8.18296 2.63254 7.56281C3.33415 6.96771 3.98645 6.79087 4.61042 6.69856C4.77705 6.67391 4.9304 6.65552 5.0776 6.63786C5.48091 6.58949 5.83802 6.54665 6.29524 6.39592C6.50834 6.32585 6.80201 6.13847 7.23398 5.81407C7.32819 5.74332 7.42855 5.66643 7.53371 5.58586C7.8647 5.33225 8.24326 5.0422 8.62747 4.79256Z"></path>
</svg>