<svg xmlns="http://www.w3.org/2000/svg" width="18" height="18" viewBox="0 0 18 18" fill="none">
<path d="M17.7241 5.13782C18.2333 2.48232 15.902 0.150972 13.2465 0.660254L5.62227 2.12246C3.96491 2.44031 2.63946 3.69485 2.21835 5.32499C1.37759 8.57965 4.39596 11.5542 7.63687 10.6011C7.72637 10.5748 7.80952 10.6579 7.7832 10.7474C6.83014 13.9884 9.80466 17.0067 13.0593 16.166C14.6895 15.7449 15.944 14.4194 16.2619 12.762L17.7241 5.13782Z" fill="#FFC53D"></path>
<path d="M3.12045 12.6122C3.36453 12.3682 3.36453 11.9724 3.12045 11.7283C2.87638 11.4843 2.48065 11.4843 2.23657 11.7283L1.05806 12.9069C0.813981 13.1509 0.813981 13.5467 1.05806 13.7907C1.30214 14.0348 1.69786 14.0348 1.94194 13.7907L3.12045 12.6122Z" fill="#FFC53D"></path>
<path d="M6.06673 12.3176C6.31081 12.5617 6.31081 12.9574 6.06673 13.2015L4.88822 14.38C4.64414 14.6241 4.24841 14.6241 4.00434 14.38C3.76026 14.1359 3.76026 13.7402 4.00434 13.4961L5.18285 12.3176C5.42693 12.0735 5.82265 12.0735 6.06673 12.3176Z" fill="#FFC53D"></path>
<path d="M6.65599 16.1478C6.90006 15.9037 6.90006 15.508 6.65599 15.2639C6.41191 15.0198 6.01618 15.0198 5.7721 15.2639L4.59359 16.4424C4.34951 16.6865 4.34951 17.0822 4.59359 17.3263C4.83767 17.5704 5.2334 17.5704 5.47748 17.3263L6.65599 16.1478Z" fill="#FFC53D"></path>
</svg>